<svg xmlns="http://www.w3.org/2000/svg" viewBox="0 0 151.86 54.66"><defs><style>.cls-1{fill:#231f20;}</style></defs><title>Ресурс 1</title><g id="Слой_2" data-name="Слой 2"><g id="Слой_1-2" data-name="Слой 1"><path class="cls-1" d="M19.47,2.42C9.59,14,.12,28.42,0,39.17A12.74,12.74,0,0,0,4.37,49.43a21.13,21.13,0,0,0,14.26,5.22c7.15,0,14.24-2.87,19.8-5.1C47.79,45.81,151.22.89,151.22.89c1-.5.81-1.12-.44-.81L38.18,30.58a24.74,24.74,0,0,1-6.52.93C23,31.56,15.38,26.78,15.44,16.7c0-3.94,1.23-8.7,4-14.29Z"/></g></g></svg>